<?xml version="1.0" encoding="UTF-8"?>
<!DOCTYPE svg PUBLIC "-//W3C//DTD SVG 1.1//EN" "http://www.w3.org/Graphics/SVG/1.1/DTD/svg11.dtd">
<!-- Creator: CorelDRAW -->
<svg xmlns="http://www.w3.org/2000/svg" xml:space="preserve" width="11in" height="8.5in" style="shape-rendering:geometricPrecision; text-rendering:geometricPrecision; image-rendering:optimizeQuality; fill-rule:evenodd; clip-rule:evenodd"
viewBox="0 0 11 8.5"
 xmlns:xlink="http://www.w3.org/1999/xlink">
 <defs>
  <style type="text/css">
   <![CDATA[
    .fil22 {fill:#2C5B9C}
    .fil19 {fill:#2D61A9}
    .fil2 {fill:#323643}
    .fil0 {fill:#3A332D}
    .fil15 {fill:#3B3631}
    .fil28 {fill:#3C3C3C}
    .fil16 {fill:#40495F}
    .fil6 {fill:#434D55}
    .fil29 {fill:#454446}
    .fil34 {fill:#4A6984}
    .fil11 {fill:#4D4343}
    .fil23 {fill:#5781BA}
    .fil14 {fill:#5A5751}
    .fil26 {fill:#649C92}
    .fil3 {fill:#68707F}
    .fil24 {fill:#6BAA9E}
    .fil30 {fill:#6D6E6F}
    .fil18 {fill:#6E694F}
    .fil5 {fill:#777F87}
    .fil21 {fill:#858A97}
    .fil9 {fill:#9096A4}
    .fil7 {fill:#919CA6}
    .fil33 {fill:#A63131}
    .fil10 {fill:#ABB8C3}
    .fil31 {fill:#B93737}
    .fil25 {fill:#C8C7B9}
    .fil13 {fill:#D2C3A8}
    .fil32 {fill:#D9D9D9}
    .fil4 {fill:#DAD9CA}
    .fil20 {fill:#DDDDDD}
    .fil8 {fill:#E1CEB4}
    .fil1 {fill:#E1CFB5}
    .fil35 {fill:#E5E6E7}
    .fil12 {fill:#ECECEC}
    .fil27 {fill:#F4C700}
    .fil17 {fill:white}
   ]]>
  </style>
 </defs>
 <g id="Layer_x0020_1">
  <metadata id="CorelCorpID_0Corel-Layer"/>
  <g id="_265544160">
   <path id="_261791848" class="fil0" d="M1.44074 3.58922c-0.00204331,0.0085315 -0.00374016,0.0181732 0.000992126,0.025563 0.00414173,0.00648031 0.0120433,0.00931496 0.0194055,0.0115394 0.172142,0.051878 0.356807,0.00603937 0.530642,-0.0398543 0.0290591,-0.00765748 0.0581142,-0.0153386 0.0869843,-0.0236614 0.0140945,-0.00406693 0.0286024,-0.00854331 0.0397283,-0.0180906 0.0154961,-0.0132992 0.0219921,-0.0344488 0.023748,-0.0547953 0.00416929,-0.0482756 -0.0139724,-0.095437 -0.0328937,-0.140047 -0.0484488,-0.114177 -0.10424,-0.225252 -0.166906,-0.332283 -0.00801575,-0.0136929 -0.0163425,-0.0275512 -0.0282244,-0.0380669 -0.0233976,-0.0207087 -0.0577402,-0.0253189 -0.088374,-0.0191772 -0.0306378,0.00614567 -0.0584685,0.0217126 -0.0853504,0.0376378 -0.0944803,0.0559961 -0.157323,0.113484 -0.176709,0.221748 -0.0230472,0.128819 -0.0926457,0.242787 -0.123043,0.369488z"/>
   <path id="_261791968" class="fil1" d="M2.09785 2.97449c-0.0735276,-0.261465 -0.401673,-0.186575 -0.478181,0.0370118 -0.046126,0.134791 0.0374252,0.315835 0.165528,0.383811 -0.00425591,0.0348976 0.00411024,0.126209 0.00595669,0.126209 0.0459134,-5.11811e-005 0.091815,-9.44882e-005 0.137728,-0.000133858 0.00119291,-0.0340748 0.000413386,-0.0682126 -0.00196063,-0.102224 0.0160354,-0.00287795 0.0322362,-0.00745276 0.0485315,-0.0144252 0.0750512,-0.0320945 0.12476,-0.1085 0.141102,-0.188465 0.0163346,-0.0799606 0.00338976,-0.163213 -0.0187047,-0.241783z"/>
   <polygon id="_261791728" class="fil2" points="1.78815,7.77549 1.77976,7.86152 1.6032,7.93613 1.52748,7.84439 1.61997,7.76407 1.79652,7.68946 "/>
   <polygon id="_261791488" class="fil3" points="1.93561,6.03191 1.79965,7.74837 1.62952,7.77117 1.48871,6.30821 1.37227,5.84408 "/>
   <polygon id="_261791368" class="fil3" points="2.29069,5.572 2.39268,7.61165 2.28927,7.6499 1.96592,6.10658 1.78803,5.65971 "/>
   <polygon id="_261791752" class="fil2" points="2.30308,7.71741 2.48746,7.77304 2.55482,7.67069 2.45435,7.59949 2.28652,7.63064 "/>
   <path id="_261791776" class="fil4" d="M2.11007 3.45629c-0.0354528,-0.00443701 -0.0717165,-0.000665354 -0.107248,0.00427953 -0.107236,0.0149291 -0.212953,0.0405079 -0.315031,0.0762047 -0.0329291,0.0115157 -0.0656772,0.0241772 -0.0955866,0.0420197 -0.145437,0.0867402 -0.133642,0.222634 -0.160311,0.373941 -0.0185945,0.10548 -0.0458504,0.213783 -0.0532244,0.320835 -0.0191969,0.279071 -0.106874,0.561362 -0.227858,0.816878 -0.0510039,0.10774 -0.111803,0.21165 -0.148079,0.325047 -0.0600984,0.187886 -0.0599331,0.40926 -0.0429409,0.60374 0.171071,0.046374 0.331303,0.133244 0.507244,0.155748 0.14474,0.0185157 0.290925,-0.00774016 0.436315,-0.0204331 0.171925,-0.0150118 0.345051,-0.0110039 0.517142,-0.0240551 0.172091,-0.0130591 0.346059,-0.044248 0.498378,-0.124307 -0.0157205,0.00826378 -0.233744,-0.574606 -0.249122,-0.626854 -0.0257559,-0.0875118 -0.0395472,-0.177933 -0.0540118,-0.267941 -0.0714606,-0.444413 -0.161693,-0.887705 -0.306803,-1.31503 -0.0372756,-0.109772 -0.0447205,-0.310311 -0.183709,-0.33765 -0.00503543,-0.000992126 -0.0100945,-0.0017874 -0.0151535,-0.0024252z"/>
   <path id="_261791416" class="fil0" d="M1.85607 2.90409c0.0796063,0.0143071 0.177768,0.0813976 0.196945,0.164228 0.00924016,0.0398976 -0.00392913,0.0766299 0.0076811,0.118941 0.0225669,0.0834961 -0.0798543,0.206504 0.0215315,0.264543 0.052122,0.0298228 0.117244,0.0201614 0.176535,0.00959843 0.00718504,-0.00128346 0.0147087,-0.00270866 0.0203976,-0.00724016 0.0093622,-0.00744488 0.0109331,-0.0213622 0.00738189,-0.0327087 -0.00354331,-0.0113346 -0.0111614,-0.0209016 -0.0178228,-0.0307874 -0.0696693,-0.103339 -0.0527913,-0.251555 -0.079878,-0.369232 -0.0270394,-0.117453 -0.0910236,-0.234441 -0.208976,-0.282642 -0.0588189,0.0375748 -0.101579,0.0988031 -0.11624,0.166402l-0.00755512 -0.00110236z"/>
   <path id="_261791464" class="fil0" d="M1.56604 3.55456c0.0375984,-0.0230551 0.0744646,-0.0471929 0.096252,-0.0902559 0.0352047,-0.0695866 0.0203583,-0.177724 0.0245551,-0.253224 0.00439764,-0.0795787 0.011748,-0.166299 0.0670669,-0.22439 0.036126,-0.0379488 0.0805709,-0.0483543 0.130764,-0.0533937 0.034374,-0.00346063 0.0368071,0.00926772 0.0643228,-0.0113976 0.0210945,-0.0158543 0.0365394,-0.0591575 0.0395748,-0.0839724 0.00513386,-0.0418661 -0.015378,-0.0838268 -0.0456969,-0.113547 -0.0466614,-0.0457402 -0.0990315,-0.0659843 -0.163043,-0.062 -0.224685,0.014 -0.381685,0.159315 -0.426201,0.380756 -0.0213976,0.106445 0.0111102,0.220201 -0.0126693,0.322909 -0.0146732,0.0634055 -0.0512087,0.107902 -0.0617638,0.174996 -0.0274213,0.174091 -0.104075,0.400256 -0.0815394,0.575992 0.000834646,0.0065 0.00224016,0.0136654 0.0075748,0.0175866 0.0108543,0.00796457 0.0250315,-0.00405512 0.0329567,-0.0148661 0.046252,-0.0632047 0.0925039,-0.126382 0.138768,-0.189563 0.0181614,-0.024815 0.0365472,-0.0500512 0.0470709,-0.0788386 0.0262008,-0.0716732 0.00185827,-0.159492 0.047063,-0.22128 0.0246614,-0.0337047 0.060122,-0.0541535 0.0949449,-0.0755118z"/>
   <polygon id="_261792448" class="fil4" points="1.33487,3.62987 0.870921,4.48744 1.3892,4.86801 1.50948,4.75049 1.21597,4.48197 1.66198,4.13659 1.60936,3.57412 "/>
   <path id="_261791944" class="fil5" d="M1.97879 3.40859c0.0941969,0 0.170551,-0.0763504 0.170551,-0.170547l0.0339016 0c0,0.112913 -0.0915394,0.204461 -0.204453,0.204461l0 -0.0339134z"/>
   <path id="_261792664" class="fil6" d="M1.88796 3.39491l0.0661181 0c0.0169173,0 0.0306339,0.0137165 0.0306339,0.0306496l0 0.00711024c0,0.0169173 -0.0137165,0.0306378 -0.0306339,0.0306378l-0.0661181 0c-0.0169291,0 -0.0306496,-0.0137165 -0.0306496,-0.0306378l3.93701e-006 -0.00711417c0,-0.0169291 0.0137165,-0.0306457 0.0306457,-0.0306457z"/>
   <path id="_261792688" class="fil7" d="M2.14726 3.11279l0 -0.140268c0,-0.151587 -0.122882,-0.27448 -0.274472,-0.27448 -0.151594,0 -0.274476,0.122894 -0.274476,0.27448l0 0.140268 -0.0602992 0 0 -0.141323c0,-0.184886 0.149886,-0.334776 0.334776,-0.334776 0.184882,0 0.334768,0.149894 0.334768,0.334776l0 0.141323 -0.0602953 0z"/>
   <path id="_261792232" class="fil5" d="M1.4579 3.08801c-0.0103701,0.0156142 -0.0103701,0.026252 -0.0103701,0.0394764l0 0.025622 0 0.0256378c0,0.0132126 0,0.0238504 0.0103701,0.0394685l0.0169213 0.0198228 0 -0.0849291 0 -0.0849134 -0.0169213 0.019815z"/>
   <path id="_261792088" class="fil6" d="M1.568 3.27906l-0.0365197 0c-0.0312913,0 -0.0566614,-0.025378 -0.0566614,-0.0566732l0 -0.138531c0,-0.0312992 0.0253701,-0.0566693 0.0566575,-0.0566693l0.0365236 0c0.0313031,0 0.0566693,0.0253701 0.0566693,0.0566732l0 0.138524c0,0.0312953 -0.0253661,0.0566772 -0.0566693,0.0566772z"/>
   <path id="_261792256" class="fil5" d="M2.29246 3.08801c0.0103819,0.0156142 0.010378,0.026252 0.010378,0.0394764l3.93701e-006 0.025622 0 0.0256378c0,0.0132126 -3.93701e-006,0.0238504 -0.0103819,0.0394685l-0.0169094 0.0198228 0 -0.0849291 0 -0.0849134 0.0169094 0.019815z"/>
   <path id="_261792328" class="fil6" d="M2.18241 3.27906l0.0365157 0c0.0312953,0 0.0566732,-0.025378 0.0566732,-0.0566732l0 -0.138531c0,-0.0312992 -0.025378,-0.0566693 -0.0566732,-0.0566693l-0.0365157 0c-0.0313031,0 -0.0566732,0.0253701 -0.0566732,0.0566732l0 0.138524c0,0.0312953 0.0253661,0.0566772 0.0566732,0.0566772z"/>
   <polygon id="_261792808" class="fil1" points="5.49795,4.00482 5.32847,3.93848 5.29765,3.97167 5.29765,4.02652 5.21149,4.02652 5.21912,4.12565 5.29765,4.15565 5.463,4.13328 "/>
   <path id="_261792736" class="fil2" d="M6.91577 7.47306c0.0168661,-0.0185866 0.0365551,-0.0287087 0.0587913,-0.0252047 0.0213701,0.00335827 0.0405748,0.0178307 0.0493819,0.0372047 0.00600787,0.0132008 0.00727953,0.0279252 0.0084685,0.0423307 0.00616142,0.0745551 0.00559843,0.251583 -0.0937008,0.277055 -0.0417402,0.0107087 -0.0762717,-0.0189528 -0.0874134,-0.0564134 -0.0167835,-0.0564764 0.00807087,-0.212882 0.0644724,-0.274972z"/>
   <path id="_261793288" class="fil8" d="M6.88044 6.34829l0.00519685 0.454764c-0.00604331,0.201996 0.0254882,0.405122 0.0194409,0.60713 -0.0013937,0.0464449 -0.0134882,0.0954488 -0.00179528,0.141484 0.0114646,0.0450394 0.0480472,0.0529961 0.0856024,0.030185 0.0503386,-0.0305472 0.0422283,-0.101898 0.0506063,-0.153961 0.0230197,-0.143035 0.0500276,-0.285425 0.0740866,-0.428295 0.0117874,-0.0700394 -0.0125197,-0.168197 -0.00723228,-0.239091l0.0734724 -0.381122 -0.299378 -0.0310945z"/>
   <polygon id="_261793096" class="fil9" points="7.40004,5.61349 7.20211,6.49269 7.16006,7.32298 6.84623,7.31594 6.76088,4.9935 7.36928,5.00454 "/>
   <path id="_261793048" class="fil2" d="M6.46686 7.45652c0.0175984,-0.0175866 0.0376654,-0.0265709 0.0596811,-0.021752 0.0211535,0.00461811 0.0396693,0.0202441 0.0476378,0.0401496 0.00540945,0.0135748 0.00605512,0.0283898 0.00661811,0.042874 0.00294882,0.0749764 -0.00517323,0.252102 -0.105244,0.271752 -0.0420472,0.00825197 -0.0752008,-0.0234606 -0.0847087,-0.061622 -0.014311,-0.0575039 0.0171417,-0.212571 0.0760157,-0.271402z"/>
   <path id="_261793144" class="fil8" d="M6.63229 6.41213l-0.0266299 0.454028c-0.00217323,0.126177 -0.0189961,0.251378 -0.0320551,0.376693 -0.0121339,0.116417 0.00674803,0.237665 -0.0540827,0.343547 -0.0190866,0.033189 -0.0576496,0.0552913 -0.0845984,0.0149646 -0.0207559,-0.0310866 -0.00842913,-0.0829449 -0.0124134,-0.118209 -0.0162598,-0.143949 -0.0365197,-0.287437 -0.0538071,-0.431272 -0.00848031,-0.0705236 0.0204173,-0.167441 0.0184882,-0.238488l-0.0554252 -0.384126 0.300524 -0.0171378z"/>
   <polygon id="_261793024" class="fil9" points="6.23512,5.55972 6.20959,6.41319 6.34353,7.27626 6.66277,7.2858 6.64869,6.35176 6.81761,5.57716 6.87432,5.07013 6.36776,5.01038 "/>
   <polygon id="_261792856" class="fil10" points="6.63586,3.26372 7.18159,3.2507 7.498,3.83916 7.38554,4.39034 7.36551,5.04995 6.58705,5.06057 6.33089,5.01899 6.39892,4.31421 6.35992,3.37276 "/>
   <polygon id="_261793000" class="fil10" points="6.61616,3.6203 6.3319,4.18857 6.02541,4.24947 5.4117,4.15565 5.487,3.96367 6.04975,3.96367 6.36752,3.37276 "/>
   <path id="_261793216" class="fil8" d="M6.67004 2.80648c0.082252,-0.239193 0.39802,-0.149551 0.463122,0.0634213 0.0424685,0.138929 -0.0648268,0.319213 -0.208783,0.359118 -0.000622047,0.00546063 -0.00111024,0.0105748 -0.00111811,0.0149094 -9.84252e-005,0.0222953 -0.00285433,0.0442795 -0.00616142,0.0665669 -0.00122835,0.00830315 -0.127201,-0.0159016 -0.14126,-0.0186654 -0.00490945,-0.00096063 -0.0103976,-0.00230709 -0.0130354,-0.0064252 -0.00507874,-0.00791732 0.00316929,-0.0312087 0.00409449,-0.04 0.00110236,-0.0103701 0.00217717,-0.020748 0.00327559,-0.031126 -0.0710118,-0.0346614 -0.115827,-0.10848 -0.128323,-0.183622 -0.0125748,-0.0755039 0.00346063,-0.152295 0.028189,-0.224177z"/>
   <path id="_261793384" class="fil11" d="M6.87603 2.59034c0.016937,0.0172008 0.0235787,0.0411693 0.0284646,0.0642008 0.00291732,0.0137441 0.0054252,0.0279646 0.00248819,0.0415906 -0.0117323,0.0542992 -0.0655866,0.0514528 -0.107236,0.0689488 -0.0513543,0.0215827 -0.0956457,0.0613228 -0.124413,0.107094 -0.0450157,0.0716496 -0.0247717,0.163854 -0.00649606,0.242909 0.0064252,0.0278504 0.0193819,0.0692677 -0.00221654,0.0941142 -0.0219528,0.0252402 -0.0726929,0.0213425 -0.0989843,0.00835827 -0.0240197,-0.0118819 -0.0437638,-0.0338228 -0.0701417,-0.0382441 -0.0279134,-0.00467323 -0.0656535,0.00759449 -0.0786339,-0.0180197 -0.00362205,-0.00712598 -0.00395276,-0.0158307 -0.00851969,-0.0223622 -0.0154213,-0.022063 -0.0537874,0.00377953 -0.0755315,-0.0117756 -0.0133622,-0.00956693 -0.0132835,-0.0299488 -0.00875984,-0.0460748 0.00451969,-0.0161299 0.012126,-0.0324724 0.00898425,-0.0488898 -0.00270866,-0.0140984 -0.012874,-0.025248 -0.0191575,-0.0380709 -0.0124213,-0.0253504 -0.00812992,-0.0583465 0.0103504,-0.0797402 0.0343858,-0.0397953 0.100909,-0.0322402 0.137744,-0.0696575 0.0192047,-0.0195 0.0266378,-0.0476181 0.0337913,-0.0742283 0.00715354,-0.026626 0.0157362,-0.0546732 0.0362638,-0.0727126 0.0253268,-0.0222756 0.0619252,-0.0184882 0.0869173,-0.0449016 0.0146929,-0.0155354 0.0244843,-0.0357441 0.0409843,-0.049252 0.0217283,-0.0178031 0.0642047,-0.0314961 0.0912283,-0.0405748 0.0428858,-0.0144134 0.0908268,-0.00524803 0.122874,0.0272874z"/>
   <path id="_261793720" class="fil11" d="M7.07577 2.97205c0.00147244,0.0787244 -0.0376378,0.163839 -0.00137795,0.233138 0.0366063,0.0699331 0.127843,0.0825433 0.205594,0.086189 0.0127913,0.000594488 0.176894,0.0147756 0.177591,0.0116614 0.0122913,-0.0548465 0.0249882,-0.110756 0.0536535,-0.158913 0.0286575,-0.0481535 0.0765787,-0.0880394 0.131457,-0.0914685 -0.0158307,-0.00274016 -0.023811,-0.022126 -0.0219921,-0.0384685 0.00184252,-0.0163465 0.0102953,-0.0310866 0.0151969,-0.0467874 0.0120197,-0.0385945 0.000314961,-0.0836102 -0.0287795,-0.110724 -0.0580472,-0.0541063 -0.163303,-0.0316299 -0.213067,-0.0937756 -0.0308465,-0.0385315 -0.0271772,-0.0944252 -0.0433465,-0.141465 -0.0312559,-0.0909764 -0.130858,-0.110008 -0.205299,-0.151087 -0.0785709,-0.0433661 -0.152567,-0.0671339 -0.24326,-0.0520197 -0.112429,0.0187441 -0.196004,0.133197 -0.152638,0.240917 0.055622,0.138146 0.277953,0.126228 0.319583,0.266492 0.0044685,0.0150709 0.00638583,0.030563 0.00668504,0.046311z"/>
   <polygon id="_261777712" class="fil12" points="7.02014,3.26059 6.85085,3.49989 6.77126,3.49337 6.63861,3.2507 "/>
   <polygon id="_261777784" class="fil13" points="3.22512,2.90859 3.11974,2.71615 3.22335,2.5177 3.33133,2.57489 3.31833,2.738 3.37527,2.79352 3.35319,2.93341 "/>
   <polygon id="_261793672" class="fil14" points="4.84367,4.72751 4.85799,5.96583 4.72601,7.55993 4.54658,7.55993 4.33187,6.08923 4.08633,4.61599 "/>
   <polygon id="_261777736" class="fil15" points="4.54762,7.63561 4.74166,7.73262 4.83867,7.63561 4.74166,7.53859 4.54762,7.53859 "/>
   <polygon id="_261778216" class="fil14" points="3.61344,4.72751 3.60992,5.44392 3.73093,7.55994 3.91037,7.55994 4.21053,6.15576 4.37078,4.616 "/>
   <polygon id="_261777904" class="fil15" points="3.90933,7.63561 3.7153,7.73262 3.61828,7.63561 3.7153,7.53859 3.90933,7.53859 "/>
   <path id="_261777640" class="fil16" d="M3.42683 5.15887c-0.00383858,0.113673 -0.00137795,0.265713 0.0464843,0.27139 0.00896457,0.00106693 0.0175984,-0.00289764 0.0254843,-0.00672441 0.0832244,-0.0404409 0.142543,-0.0975827 0.224594,-0.13665 0.0859646,-0.0409213 0.183677,-0.0623465 0.279169,-0.0771457 0.142429,-0.0227402 0.287213,-0.0364016 0.430563,-0.0376772 0.123205,-0.00109843 0.251331,0.0551024 0.367795,0.0860039 0.0448346,0.0119094 0.0813031,0.0445787 0.118551,0.0701929 0.0550118,0.0378504 0.079126,0.0528425 0.0716299,-0.0244843 -0.012248,-0.126181 -0.0249567,-0.252323 -0.0404803,-0.378154 -0.0309528,-0.250969 -0.0731102,-0.501335 -0.144413,-0.744283 -0.0272441,-0.092811 -0.0586732,-0.184331 -0.0900906,-0.275823 -0.038252,-0.111409 -0.0765039,-0.222811 -0.114768,-0.334213 -0.0475472,-0.138461 -0.127791,-0.236 -0.268303,-0.284429 -0.121433,-0.0418583 -0.27226,-0.0533071 -0.390378,0.0052874 -0.131291,0.0651181 -0.193732,0.287016 -0.25752,0.405594 -0.0558898,0.103909 -0.12635,0.387323 -0.147264,0.499343 -0.025185,0.134831 -0.0484488,0.269028 -0.0667677,0.402862 -0.0202835,0.148244 -0.0345748,0.296043 -0.0387165,0.442976 -0.000456693,0.0162441 -0.00373622,0.0616654 -0.00557087,0.115933z"/>
   <path id="_261777880" class="fil17" d="M4.07541 3.31174l0.242488 0.00231102c0,0 0.260185,0.909303 0.269756,1.06602 0.00938189,0.153858 0.0751417,0.777681 0.0751417,0.777681 0,0 -0.268535,0.00632283 -0.577953,0.0440236 -0.302476,0.0647323 -0.327909,0.0264449 -0.327909,0.0264449 0,0 0.163252,-0.655661 0.168673,-0.844031 0.00553543,-0.192677 0.0302047,-0.829047 0.0302047,-0.829047l0.119598 -0.243406z"/>
   <path id="_261777952" class="fil13" d="M4.13646 3.30937c0.00285039,0.00247244 0.00612598,0.00442126 0.00992126,0.00566535 0.00753937,0.00248425 0.0156969,0.00157874 0.0235866,0.000645669 0.0320709,-0.00379921 0.0641535,-0.00759449 0.0962283,-0.0113858 -0.0105827,-0.0982323 0.0468346,-0.120449 0.102791,-0.183618 0.0567126,-0.0640472 0.039248,-0.150398 0.0360669,-0.228776 -0.000905512,-0.0218268 -0.00197638,-0.0443189 -0.0112047,-0.0641142 -0.0161969,-0.034752 -0.0538976,-0.0539409 -0.0905079,-0.065315 -0.0934252,-0.0290354 -0.200283,-0.021878 -0.282539,0.0310748 -0.0218976,0.0140866 -0.0423425,0.0317992 -0.0542008,0.0549803 -0.0182835,0.0357362 -0.0136299,0.0783858 -0.00854331,0.118209 0.00784646,0.0612008 0.0259567,0.121311 0.0605669,0.172906 0.0322362,0.0480551 0.0937126,0.0710709 0.100776,0.128752 0.00183071,0.0148976 0.00633465,0.0316614 0.0170591,0.0409764z"/>
   <path id="_261778936" class="fil15" d="M3.96077 2.89559c0.00545276,0.0246929 0.0169528,0.0496654 0.0109646,0.0742126 -0.0392087,-0.013311 -0.0648346,-0.0534094 -0.0787126,-0.0941654 -0.00629134,-0.0184843 -0.010874,-0.0380433 -0.00927953,-0.0575984 0.00157874,-0.0195472 0.0100709,-0.039189 0.0255,-0.0502441 0.0215394,-0.0154094 0.0601732,-0.00935433 0.0663425,0.0185787 0.0062126,0.0281732 -0.0230276,0.0720866 -0.014815,0.109217z"/>
   <path id="_261778792" class="fil18" d="M3.75261 2.67877c0.000925197,-0.0295787 0.0121969,-0.0559961 0.038626,-0.0738504 0.0227795,-0.0153898 0.0490512,-0.0281496 0.0628937,-0.0526142 0.010748,-0.0189843 0.0123189,-0.0424843 0.0229764,-0.0615315 0.0192717,-0.0344843 0.0611063,-0.0446378 0.0975118,-0.0563189 0.0910551,-0.029252 0.140079,-0.0630079 0.236524,-0.0255787 0.068563,0.026622 0.157165,0.030185 0.220807,0.0690157 0.0265709,0.0162087 0.049185,0.0422559 0.0677402,0.0712717 0.0642874,0.10052 0.0797323,0.241862 0.0378543,0.346705 -0.00937402,0.0234685 -0.0212835,0.0450394 -0.0340157,0.0657087 -0.0254646,0.041311 -0.0527283,0.0921535 -0.0977992,0.112378 -0.00283071,-0.0194685 -0.0173425,-0.0302126 -0.021878,-0.0493425 -0.00325591,-0.0137677 -0.00216535,-0.0282008 -0.00146063,-0.0423701 0.00277559,-0.0551299 0.0196811,-0.142283 -0.0353661,-0.169626 -0.0696181,-0.0345669 -0.200189,-0.00338976 -0.267244,0.0258701 -0.0593228,0.0258937 -0.159441,0.0595787 -0.222693,0.0318465 -0.0587165,-0.0257559 -0.106457,-0.128382 -0.104476,-0.191563z"/>
   <polygon id="_261778648" class="fil16" points="3.94267,3.29217 3.51468,3.65167 3.41481,2.91677 3.18798,2.87282 3.14826,3.87159 3.39098,4.09958 3.8325,3.88154 "/>
   <path id="_261778264" class="fil19" d="M4.14426 5.07906c0,-0.845752 0.685618,-1.53136 1.53137,-1.53136 0.845752,-3.93701e-006 1.53136,0.68561 1.53136,1.53136 3.93701e-006,0.84576 -0.68561,1.53137 -1.53136,1.53137 -0.845748,0 -1.53137,-0.685606 -1.53137,-1.53137z"/>
   <path id="_261778816" class="fil17" d="M6.03507 4.05743c-0.0458622,-0.0405472 -0.109323,-0.0608386 -0.190417,-0.0608386 -0.0670315,-3.93701e-006 -0.127862,0.0141142 -0.182492,0.0423386 -0.0546575,0.0282008 -0.0974291,0.065685 -0.128248,0.11237 -0.030874,0.046752 -0.0463071,0.0983228 -0.0463071,0.154736 3.93701e-006,0.0634685 0.0228937,0.115492 0.0687874,0.156035 0.0458268,0.0405709 0.110161,0.0608307 0.193055,0.0608307 0.067,-3.93701e-006 0.127346,-0.0136339 0.181154,-0.0409843 0.0537835,-0.0273228 0.0961102,-0.064815 0.126941,-0.112413 0.0308504,-0.0476063 0.0462992,-0.0987323 0.0462992,-0.153402 7.87402e-006,-0.0652165 -0.0229252,-0.11811 -0.0687717,-0.158673z"/>
   <path id="_261778360" class="fil17" d="M5.997 5.87407c0,0 -0.243791,0.0972087 -0.221697,-0.0280984l0.166992 -0.94628c0.0208031,-0.117925 -0.0699134,-0.226051 -0.189665,-0.226051l-0.26502 0 -0.0264291 0 -0.172839 0 -0.0139213 0.0589567c0,0 0.174685,0.00944094 0.148055,0.160366 -0.0606378,0.343587 -0.17122,0.970228 -0.171323,0.970819 -0.0148386,0.084126 0.0151654,0.171476 0.0784094,0.228878 0.0946063,0.0858504 0.224492,0.0802126 0.339106,0.0436654 0.0382362,-0.0122087 0.371161,-0.161177 0.37065,-0.16239l-0.0423189 -0.0998661z"/>
   <path id="_261778888" class="fil20" d="M5.67424 6.61043c-0.000133858,0 -0.000322835,0 -0.000452756,0 0.000169291,0 0.000295276,0 0.000452756,0zm-0.00138583 0c-0.000192913,0 -0.000362205,0 -0.000547244,0 0.00015748,0 0.000393701,0 0.000543307,0zm-0.00146457 0c-0.000161417,-1.1811e-005 -0.000291339,-1.1811e-005 -0.000452756,-1.1811e-005 0.000161417,0 0.000287402,0 0.000448819,1.1811e-005zm-0.00151575 -1.1811e-005c-0.000122047,0 -0.000228346,0 -0.000350394,0 0.000153543,0 0.000192913,0 0.000350394,0zm-0.00175591 -7.87402e-006c-6.29921e-005,0 -0.000145669,0 -0.000208661,0 5.51181e-005,0 0.000153543,0 0.000208661,0zm-0.00139764 0c-0.000161417,0 -0.00023622,0 -0.000389764,-1.1811e-005 0.000106299,0 0.000275591,1.1811e-005 0.000389764,1.1811e-005zm-0.00149606 -1.1811e-005c-0.000125984,0 -0.000188976,0 -0.000311024,0 0.000106299,0 0.000204724,0 0.000307087,0zm-0.00150787 -7.87402e-006c-9.05512e-005,0 -0.000133858,0 -0.000228346,0 0.000106299,0 0.000125984,0 0.000228346,0zm-0.00466142 -4.33071e-005l-5.90551e-005 -7.87402e-006c4.72441e-005,7.87402e-006 7.87402e-006,0 5.51181e-005,7.87402e-006zm-0.00152756 -1.9685e-005l-3.93701e-006 0 3.93701e-006 0z"/>
   <path id="_261778432" class="fil21" d="M7.20699 5.07767c0,-0.000153543 -3.93701e-006,-0.000287402 -3.93701e-006,-0.000444882 3.93701e-006,0.000125984 0,0.000322835 0,0.000444882zm3.93701e-006 -0.00138583c0,-0.000153543 -3.93701e-006,-0.00038189 -3.93701e-006,-0.000535433 3.93701e-006,0.000185039 0,0.000350394 0,0.000535433zm3.93701e-006 -0.0014685c0,-0.000153543 -3.93701e-006,-0.000287402 -3.93701e-006,-0.000440945 3.93701e-006,0.000149606 0,0.000287402 0,0.000440945zm-7.87402e-006 -0.00150787c0,-0.000153543 0,-0.000208661 0,-0.000362205 0,0.000122047 0,0.00023622 0,0.000362205zm0 -0.00176772c0,-5.11811e-005 0,-0.000141732 0,-0.000192913 0,5.90551e-005 0,0.000133858 0,0.000192913zm-3.93701e-006 -0.00139764c0,-0.000102362 -7.87402e-006,-0.000275591 -7.87402e-006,-0.000377953 7.87402e-006,0.000153543 0,0.000224409 0,0.000377953zm-3.93701e-006 -0.00148819c0,-0.000102362 -3.93701e-006,-0.000204724 -3.93701e-006,-0.000307087 3.93701e-006,0.000122047 0,0.000185039 0,0.000307087zm-7.87402e-006 -0.00150787c0,-0.000102362 -3.93701e-006,-0.000122047 -3.93701e-006,-0.000224409 3.93701e-006,9.05512e-005 0,0.000129921 0,0.000224409zm-3.93701e-005 -0.00466142c0,-5.11811e-005 0,-1.9685e-005 0,-7.08661e-005l0 7.08661e-005zm-2.3622e-005 -0.00152756l0 -2.3622e-005 0 2.3622e-005z"/>
   <path id="_261778720" class="fil22" d="M5.67563 6.61043l0 0c-0.000468504,0 -0.000913386,0 -0.00138189,0 -0.000153543,0 -0.000291339,0 -0.000452756,0 -0.000307087,0 -0.000629921,0 -0.000937008,0 -0.000149606,0 -0.000389764,0 -0.000543307,0 -0.000314961,0 -0.000614173,0 -0.000925197,0 -0.00015748,-1.1811e-005 -0.000287402,-1.1811e-005 -0.000448819,-1.1811e-005 -0.000338583,0 -0.000720472,0 -0.00106693,0 -0.00015748,0 -0.00019685,0 -0.000350394,0 -0.000468504,0 -0.000933071,0 -0.00140551,-7.87402e-006 -5.11811e-005,0 -0.000153543,0 -0.000208661,0 -0.000370079,0 -0.000818898,0 -0.00118898,0 -0.000106299,0 -0.000287402,-1.1811e-005 -0.000389764,-1.1811e-005 -0.000350394,0 -0.000759843,0 -0.00111024,0 -9.84252e-005,0 -0.000204724,0 -0.000307087,0 -0.000374016,-7.87402e-006 -0.000822835,-7.87402e-006 -0.00120079,-7.87402e-006 -9.84252e-005,0 -0.000122047,0 -0.000228346,0 -0.00147638,-2.3622e-005 -0.00295276,-3.14961e-005 -0.00443701,-4.33071e-005 -4.72441e-005,-7.87402e-006 -7.87402e-006,0 -5.90551e-005,-7.87402e-006 -0.0005,0 -0.000964567,-1.1811e-005 -0.0014685,-1.1811e-005l-3.93701e-006 0c-0.508677,-0.00590157 -0.957394,-0.260075 -1.23157,-0.646728 0.24987,0.177193 0.554906,0.281689 0.884539,0.281689 0.845752,0 1.53137,-0.685622 1.53137,-1.53136 0,-0.329646 -0.104504,-0.634677 -0.281697,-0.884547 0.386657,0.274177 0.640827,0.722886 0.646728,1.23155l0 2.3622e-005c1.1811e-005,0.0005 1.1811e-005,0.000952756 2.3622e-005,0.00145669 0,5.11811e-005 0,1.9685e-005 0,7.08661e-005 1.1811e-005,0.00147638 2.75591e-005,0.00295669 3.93701e-005,0.00443701 3.93701e-006,0.000102362 0,0.000122047 0,0.000224409 3.93701e-006,0.000377953 1.1811e-005,0.000818898 1.1811e-005,0.00120079 3.93701e-006,0.000102362 0,0.000204724 0,0.000307087 3.93701e-006,0.000346457 0,0.000759843 7.87402e-006,0.00111024 7.87402e-006,0.000102362 0,0.000275591 0,0.000377953 7.87402e-006,0.00038189 0,0.000822835 1.1811e-005,0.00120472 0,4.72441e-005 0,0.000141732 0,0.000192913 0,0.000472441 0,0.000933071 0,0.00140551 0,0.000153543 0,0.000208661 0,0.000362205 0,0.000346457 7.87402e-006,0.000716535 7.87402e-006,0.00106693 3.93701e-006,0.000149606 0,0.000287402 0,0.000440945 3.93701e-006,0.000318898 0,0.000614173 0,0.000933071 3.93701e-006,0.000153543 0,0.00038189 0,0.000535433 3.93701e-006,0.000318898 0,0.000625984 0,0.000940945 3.93701e-006,0.00015748 0,0.000291339 0,0.000444882 3.93701e-006,0.000472441 0,0.000925197 0,0.00139764l3.93701e-006 0c0,0.830047 -0.660406,1.50587 -1.48445,1.53067 -0.0155748,0.00046063 -0.0312087,0.00069685 -0.0469094,0.00069685z"/>
   <path id="_261780184" class="fil23" d="M4.36307 4.96257c-7.08661e-005,-0.00577165 -0.000153543,-0.0115512 -0.000153543,-0.0173425 0,-0.259921 0.0796575,-0.50128 0.215925,-0.701118l3.93701e-006 -0.000311024c0,-0.00940551 0.00590945,-0.0173307 0.0139803,-0.0197953 0.226598,-0.318728 0.599366,-0.52672 1.02083,-0.52672 0.149465,0 0.292795,0.0261811 0.425657,0.0741575 -0.00685433,-8.26772e-005 -0.0137283,-0.000122047 -0.0206063,-0.000122047 -0.771016,0 -1.42517,0.499154 -1.65563,1.19125z"/>
   <path id="_261781192" class="fil24" d="M0.403583 2.40874c-0.0331496,0.26835 -0.00400394,0.694122 0.28461,1.2687 0.288618,0.574587 0.612787,0.852165 0.847854,0.985787 0.168004,0.0955118 0.380083,0.0975551 0.561189,0.00658268l0.101157 -0.0508228c0.0821535,-0.0412598 0.11748,-0.136965 0.0788976,-0.213772l-0.241673 -0.481138c-0.0385748,-0.0767992 -0.136449,-0.105591 -0.218602,-0.0643307l-0.141343 0.0709921c-0.0465669,0.0233976 -0.101291,0.023185 -0.144417,-0.00149606 -0.21978,-0.125768 -0.392303,-0.478213 -0.392303,-0.478213 0,-3.93701e-006 -0.17974,-0.348823 -0.149409,-0.600232 0.00595276,-0.0493307 0.0384488,-0.0933543 0.0850276,-0.11674l0.141331 -0.0710079c0.0821535,-0.0412598 0.11748,-0.136976 0.0789016,-0.21376l-0.241677 -0.48115c-0.0385866,-0.0767992 -0.136449,-0.105594 -0.218602,-0.0643307l-0.101157 0.0508071c-0.18111,0.0909843 -0.306091,0.262327 -0.329783,0.454126z"/>
   <path id="_261781384" class="fil25" d="M2.19899 4.61869c1.1811e-005,0 3.14961e-005,-7.87402e-006 3.93701e-005,-1.5748e-005 -7.87402e-006,7.87402e-006 -3.14961e-005,1.9685e-005 -3.93701e-005,1.5748e-005z"/>
   <path id="_261781624" class="fil26" d="M1.81843 4.73649c-0.0989606,-1.1811e-005 -0.196445,-0.0244016 -0.282386,-0.0732638 -0.0850787,-0.0483543 -0.181831,-0.115579 -0.284346,-0.208913 -0.0742165,-0.0675748 -0.151461,-0.148846 -0.229469,-0.246547 -0.111961,-0.140213 -0.225508,-0.314252 -0.334039,-0.530327l0 0c-0.0397126,-0.0790591 -0.0740827,-0.155024 -0.10448,-0.228433 0.0133543,0.0221142 0.6865,1.12936 1.52123,1.12936 0.0513858,-3.93701e-006 0.103512,-0.0042126 0.156004,-0.013122 -0.0156575,0.0215394 -0.0361496,0.0403465 -0.0619213,0.0534291 -7.87402e-006,7.87402e-006 -3.14961e-005,1.9685e-005 -3.93701e-005,1.9685e-005 -0.000192913,0.000102362 -0.000389764,0.000204724 -0.000594488,0.000295276l0 0 -0.101157 0.0508189c-0.0884685,0.044437 -0.184311,0.066685 -0.278803,0.066685z"/>
   <path id="_261781456" class="fil1" d="M1.47671 4.90839c0.0274291,0.0349803 0.133016,0.0873071 0.179181,0.0744252 0.106579,-0.0297441 -0.0197953,-0.102913 -0.0577992,-0.138028 0.016311,-0.00957874 0.0323701,-0.0183228 0.0462402,-0.030622 0.0127087,-0.0112756 -0.131598,-0.0799291 -0.153343,-0.0776181 -0.0522165,0.0055315 -0.0593228,0.0381496 -0.089189,0.0769488 0.0256299,0.0309409 0.050063,0.0631693 0.0749094,0.0948937z"/>
   <path id="_261781960" class="fil5" d="M4.29085 3.15892c0.0991575,0 0.179535,-0.080374 0.179535,-0.179531l0.035685 0c0,0.118866 -0.0963543,0.21522 -0.21522,0.21522l0 -0.035689z"/>
   <path id="_261781744" class="fil6" d="M4.19523 3.14453l0.0696102 0c0.017811,0 0.032248,0.0144409 0.032248,0.032248l0 0.00749213c0,0.017811 -0.014437,0.0322598 -0.032248,0.0322598l-0.0696102 0c-0.0178071,0 -0.032248,-0.0144488 -0.032248,-0.0322598l0 -0.00749606c0,-0.0178031 0.014437,-0.0322441 0.032248,-0.0322441z"/>
   <path id="_261782008" class="fil7" d="M4.46818 2.84756l0 -0.147654c0,-0.159571 -0.129358,-0.288913 -0.288925,-0.288913 -0.159563,-3.93701e-006 -0.288913,0.129346 -0.288913,0.288913l0 0.147654 -0.0634646 0 0 -0.148764c0,-0.194614 0.157764,-0.352382 0.352378,-0.352382 0.19463,-3.93701e-006 0.352398,0.157768 0.352398,0.352382l0 0.148764 -0.0634724 0z"/>
   <path id="_261782248" class="fil5" d="M3.74254 2.82148c-0.0109094,0.0164331 -0.0109134,0.027626 -0.0109134,0.0415354l3.93701e-006 0.0269803 0 0.0269803c0,0.0139252 -3.93701e-006,0.0251142 0.0109094,0.0415512l0.017815 0.0208622 0 -0.0893937 0 -0.0893819 -0.017815 0.0208661z"/>
   <path id="_261782416" class="fil6" d="M3.85844 3.02256l-0.038437 0c-0.0329449,0 -0.0596496,-0.0267047 -0.0596496,-0.0596535l0 -0.145815c0,-0.0329488 0.0267047,-0.0596614 0.0596457,-0.0596614l0.0384409 0c0.0329488,0 0.0596496,0.0267165 0.0596496,0.0596614l0 0.145815c0,0.0329488 -0.0267047,0.0596535 -0.0596496,0.0596535z"/>
   <path id="_261782680" class="fil5" d="M4.62104 2.82148c0.0109134,0.0164331 0.0109134,0.027626 0.0109134,0.0415354l0 0.0269803 0 0.0269803c0,0.0139252 0,0.0251142 -0.0109134,0.0415512l-0.0178031 0.0208622 0 -0.0893937 0 -0.0893819 0.0178031 0.0208661z"/>
   <path id="_261782176" class="fil6" d="M4.50519 3.02256l0.0384409 0c0.0329449,0 0.0596575,-0.0267047 0.0596575,-0.0596535l0 -0.145815c0,-0.0329488 -0.0267126,-0.0596614 -0.0596614,-0.0596614l-0.038437 0c-0.0329449,0 -0.0596496,0.0267165 -0.0596496,0.0596614l0 0.145815c0,0.0329488 0.0267047,0.0596535 0.0596496,0.0596535z"/>
   <path id="_261782296" class="fil5" d="M6.97802 3.22505c0.0942717,0 0.170713,-0.0764331 0.170713,-0.170717l0.0339252 0c0,0.11302 -0.0916142,0.204646 -0.204638,0.204646l0 -0.0339291z"/>
   <path id="_261781984" class="fil6" d="M6.8871 3.21137l0.066185 0c0.0169331,0 0.0306693,0.0137244 0.0306693,0.0306654l3.93701e-006 0.00711811c0,0.016937 -0.0137402,0.0306772 -0.0306732,0.0306772l-0.066185 0c-0.0169291,0 -0.0306693,-0.0137402 -0.0306693,-0.0306772l3.93701e-006 -0.00711811c0,-0.0169409 0.0137323,-0.0306654 0.0306654,-0.0306654z"/>
   <path id="_261782488" class="fil7" d="M7.14665 2.92897l0 -0.140394c0,-0.151724 -0.123008,-0.274728 -0.274736,-0.274728 -0.151728,0 -0.274728,0.123008 -0.274728,0.274728l3.93701e-006 0.140394 -0.0603583 0 0 -0.141453c0,-0.185059 0.150012,-0.335071 0.335083,-0.335071 0.185059,-3.93701e-006 0.335071,0.150016 0.335071,0.335071l3.93701e-006 0.141453 -0.0603386 0z"/>
   <path id="_261783568" class="fil5" d="M6.45666 2.90418c-0.010378,0.015626 -0.0103819,0.0262717 -0.0103819,0.0395079l3.93701e-006 0.0256535 0 0.0256417c0,0.0132362 -3.93701e-006,0.0238858 0.010374,0.0395236l0.0169252 0.0198307 0 -0.0849961 0 -0.085 -0.0169213 0.0198386z"/>
   <path id="_261783424" class="fil6" d="M6.56685 3.09538l-0.0365472 0c-0.0313268,0 -0.0567283,-0.0253898 -0.0567283,-0.0567244l3.93701e-006 -0.13865c0,-0.0313228 0.0253976,-0.0567205 0.0567205,-0.0567205l0.0365512 0c0.0313346,0 0.0567205,0.0253976 0.0567205,0.0567205l0 0.13865c0,0.0313346 -0.0253898,0.0567244 -0.0567205,0.0567244z"/>
   <path id="_261783328" class="fil5" d="M7.29198 2.90418c0.0103858,0.015626 0.010378,0.0262717 0.010378,0.0395079l7.87402e-006 0.0256535 0 0.0256417c0,0.0132362 -7.87402e-006,0.0238858 -0.0103858,0.0395236l-0.016937 0.0198307 0 -0.0849961 0 -0.085 0.016937 0.0198386z"/>
   <path id="_261782464" class="fil6" d="M7.18183 3.09538l0.0365472 0c0.0313307,0 0.0567244,-0.0253898 0.0567244,-0.0567244l0 -0.13865c0,-0.0313228 -0.0253937,-0.0567205 -0.0567244,-0.0567205l-0.0365472 0c-0.0313228,0 -0.0567283,0.0253976 -0.0567283,0.0567205l3.93701e-006 0.13865c0,0.0313346 0.0253937,0.0567244 0.0567244,0.0567244z"/>
   <polygon id="_261783208" class="fil13" points="4.9574,2.26967 4.90672,2.06484 4.73242,1.99125 4.69938,2.10908 4.7929,2.22685 4.80587,2.33121 "/>
   <polygon id="_261783400" class="fil16" points="4.37078,3.30656 4.91605,3.08726 4.74515,2.22783 4.94182,2.20444 5.27138,3.10131 5.20348,3.37306 4.5865,3.78874 "/>
   <path id="_261783976" class="fil27" d="M6.2133 0.14622l-2.95562 0.0127441c-0.153091,0.000669291 -0.277799,0.126465 -0.277142,0.279551l0.00632677 1.46694c0.000665354,0.153087 0.126453,0.277807 0.279539,0.277142l2.04778 -0.00883465 0.486661 0.65672 0.0850315 -0.659181 0.336142 -0.00144882c0.153087,-0.000665354 0.277803,-0.126453 0.277134,-0.279551l-0.0063189 -1.46693c-0.00065748,-0.153091 -0.126449,-0.277803 -0.279539,-0.277146z"/>
   <polygon id="_261783688" class="fil1" points="7.21162,4.6312 7.26354,4.70725 7.15824,4.8444 7.04115,4.83483 6.98356,4.74447 7.05711,4.69167 7.04685,4.67027 7.06159,4.6383 "/>
   <polygon id="_261783256" class="fil10" points="7.19969,3.29128 7.80407,3.98657 7.83361,4.29112 7.23745,4.76176 7.13049,4.60699 7.51605,4.19533 7.14254,3.82967 "/>
   <path id="_261784336" class="fil28" d="M8.97283 7.79704l0.15411 -0.142358c0.0447205,-0.0226181 0.0920157,-0.0384291 0.130354,-0.037937 0.0278346,0.000350394 0.0509291,0.00928346 0.0648543,0.0304134 0.0133937,0.0202756 0.0160984,0.0469882 0.00699213,0.0686299 -0.00334252,0.00791732 -0.00808268,0.015 -0.0133976,0.021685l1.1811e-005 0 -7.08661e-005 7.08661e-005c-0.00459055,0.00575197 -0.00961417,0.0112008 -0.0146102,0.0165709 -0.0031811,0.00342913 -0.00669685,0.00709449 -0.0104252,0.0109252 -0.0318898,0.0345669 -0.0853465,0.0908701 -0.106543,0.103591 -0.0311299,0.0186614 -0.0995906,0.0684567 -0.180492,0.0124528l0.000937008 -0.000791339c-0.0294094,-0.0199173 -0.0380709,-0.0526457 -0.0317205,-0.083252z"/>
   <path id="_261784240" class="fil13" d="M9.0938 6.55728l0.0124449 0.17865 0.0610551 0.869724 -0.0610551 0.101165c0,0 -0.0124488,0.0809055 0.0809055,0.074689 0.0277756,-0.00185433 0.12613,-0.126913 0.12613,-0.126913l-0.0142205 -0.0572992 0.0692087 -0.653024 -0.000622047 -0.189681 0.0330945 -0.210587 -0.306941 0.0132756z"/>
   <path id="_261784384" class="fil28" d="M10.0708 7.5762c0.0287441,-0.0090315 0.055437,-0.00765748 0.0768937,0.00934646 0.0205394,0.016311 0.0323386,0.042811 0.0302874,0.0681063 -0.00143307,0.0172402 -0.00872835,0.0332126 -0.0159134,0.0487874 -0.0372638,0.0806772 -0.141579,0.263063 -0.26139,0.229638 -0.0503031,-0.0140551 -0.0694016,-0.0654331 -0.0591339,-0.110819 0.0153976,-0.068378 0.133362,-0.214894 0.229256,-0.245059z"/>
   <path id="_261783736" class="fil13" d="M9.46712 6.45296l0.0208583 0.257236 0.50498 0.909165c0,0 -0.0725866,0.126795 -0.0265945,0.137823 0.0461024,0.0110039 0.181004,-0.0273937 0.181311,-0.170594 -0.0530748,-0.173394 -0.261697,-0.762217 -0.261697,-0.762217l-0.0977362 -0.151953 0.00143701 -0.285535 -0.322559 0.0660748z"/>
   <path id="_261784312" class="fil29" d="M10.0376 5.59189c0.00400787,-0.0758307 -0.0202244,-0.273669 -0.0451732,-0.344571 -0.0908583,-0.258504 -0.108311,-0.385906 -0.108311,-0.596319 0,-0.210409 -0.0405551,-0.867878 -0.0405551,-0.867878l-0.190449 -0.204335 -0.388776 0.0109094 -0.21589 0.0712047c0,0 -0.0457008,0.839343 -0.058685,1.10987 -0.00924803,0.193039 -0.0226575,0.360256 -0.0403071,0.583949 0,0 -0.0494843,0.510201 0.0269606,1.05713 3.93701e-006,0 0.017063,0.181618 0.0247244,0.197531 0.00101969,0.00540157 0.00157874,0.00829528 0.00157874,0.00829528l0.00310236 1.1811e-005 0.864535 -1.1811e-005 0 -0.311685c0.028748,-0.100039 0.0560551,-0.200528 0.0823386,-0.301276 0.0332677,-0.128047 0.0775118,-0.272087 0.0849055,-0.412823z"/>
   <path id="_261784456" class="fil30" d="M9.85477 3.63759l0.073815 0.0881063c0,0 -0.0385,0.791224 -0.0444528,0.925311 -0.00605512,0.134079 0.166728,0.669878 0.166728,0.669878l-0.715685 0.0933661c0,0 -0.105283,-0.572224 -0.135579,-0.856476 -0.0302795,-0.284268 0.402744,-0.977236 0.402744,-0.977236l0.252429 0.0570512z"/>
   <path id="_261785080" class="fil30" d="M9.13725 3.62409l-0.146067 0.069315c0,0 0.0205433,0.854146 -0.0169213,1.07108 -0.0228189,0.132244 -0.11172,0.560476 -0.11172,0.560476l0.231138 0.0790945c0,0 0.142295,-0.535665 0.170567,-0.819917 0.0282795,-0.284264 -0.00252362,-0.991165 -0.00252362,-0.991165l-0.124472 0.0311142z"/>
   <path id="_261784504" class="fil29" d="M9.16558 3.3112c-0.0189606,0.0733898 0.0245787,0.145894 0.0626654,0.20778 0.0155669,0.0252835 0.0396929,0.0604803 0.0196102,0.0893425 -0.0224803,0.032315 -0.0783228,0.0258386 -0.10289,0.00167323 -0.0173386,-0.0170591 -0.025874,-0.040185 -0.0332756,-0.062752 -0.0331575,-0.101067 -0.0794528,-0.242642 -0.0704016,-0.348882 0.00726772,-0.0851929 0.111736,-0.236484 0.219362,-0.182354 0.0195433,0.0098189 0.032063,0.0282835 0.0427795,0.0464331 0.00639764,0.0108386 0.0125669,0.0221969 0.0138386,0.0345591 0.00508268,0.0493307 -0.0424843,0.0620197 -0.0737323,0.0885394 -0.0385472,0.0326969 -0.0658425,0.0788071 -0.0779567,0.125661z"/>
   <path id="_261784528" class="fil13" d="M9.34517 3.57482c-0.071878,-0.00913386 -0.131961,-0.0593661 -0.164114,-0.119858 -0.0321457,-0.0604843 -0.0398228,-0.130091 -0.038563,-0.197961 0.00419685,-0.22585 0.303677,-0.238394 0.420126,-0.0760906 0.1015,0.141457 -0.00845276,0.420465 -0.217449,0.393909z"/>
   <path id="_260863992" class="fil29" d="M9.54961 3.28754c0.00247638,0.0273504 0.0163819,0.0563543 0.0202244,0.0844528 0.00706299,0.0517205 -0.00451575,0.118839 0.0144134,0.166094 0.0525591,-0.00720079 0.116413,-0.0400394 0.155323,-0.0760748 0.0397323,-0.036811 0.0325472,-0.0915394 0.0414803,-0.14576 0.00821654,-0.0501417 0.0186811,-0.100551 0.0158071,-0.151276 -0.0157047,-0.277776 -0.292894,-0.429681 -0.53711,-0.304366 -0.0923858,0.0474016 -0.132799,0.167878 -0.0648425,0.247047 0.0731024,0.0851378 0.221614,0.0482205 0.309161,0.111402 0.0194173,0.0140157 0.0343504,0.039189 0.0455433,0.0684803z"/>
   <path id="_260864376" class="fil13" d="M9.33916 3.55152c0.00364173,0.016815 0.00728346,0.0336339 0.0109252,0.050437 0.0016811,0.0077126 0.00103937,0.0297835 0.0076811,0.0350748 0.00346457,0.00274803 0.00860236,0.00233858 0.0131417,0.00178346 0.0129803,-0.00159055 0.129209,-0.0163937 0.127945,-0.0237874 -0.00338976,-0.0198189 -0.00718898,-0.0392283 -0.013378,-0.0581614 -0.00498819,-0.0152874 -0.00690157,-0.044063 -0.016122,-0.0556654 -0.0197362,0.0135 -0.0401496,0.0218465 -0.0634055,0.0284488 -0.0224291,0.00635433 -0.0449961,0.0123386 -0.0676457,0.0179646 0.000291339,0.00129528 0.000574803,0.00259843 0.000858268,0.00390551z"/>
   <polygon id="_260864880" class="fil13" points="8.87418,2.56255 8.94533,2.3525 9.13437,2.29082 9.15856,2.41714 9.05023,2.53222 9.02743,2.64037 "/>
   <polygon id="_260864616" class="fil30" points="9.25885,3.81455 8.858,3.44507 9.10016,2.53747 8.89626,2.49561 8.47194,3.40583 8.51906,3.69641 9.12856,4.18622 "/>
   <path id="_260864280" class="fil5" d="M9.30001 3.56423c-0.096374,0 -0.174496,-0.0781299 -0.174496,-0.174492l-0.034685 0c0,0.11552 0.0936457,0.209173 0.209177,0.209173l3.93701e-006 -0.0346811z"/>
   <path id="_92558984" class="fil6" d="M9.39293 3.55024l-0.0676417 0c-0.0173228,0 -0.0313622,0.0140354 -0.0313622,0.0313543l0 0.00727559c0,0.017311 0.0140354,0.0313465 0.0313543,0.0313465l0.0676496 0c0.017311,0 0.0313425,-0.0140354 0.0313425,-0.0313425l3.93701e-006 -0.00728346c0,-0.0173189 -0.0140394,-0.0313504 -0.0313465,-0.0313504z"/>
   <path id="_92558504" class="fil7" d="M9.12764 3.26159l0 -0.143512c0,-0.155087 0.12572,-0.280811 0.280811,-0.280811 0.155091,0 0.280811,0.125728 0.280811,0.280815l3.93701e-006 0.143508 0.0617047 0 0 -0.144575c0,-0.189165 -0.15337,-0.342508 -0.34252,-0.342508 -0.189165,0 -0.342512,0.153343 -0.342512,0.342508l3.93701e-006 0.144575 0.0616969 0z"/>
   <path id="_91247704" class="fil5" d="M9.8329 3.23624c0.0106772,0.0159843 0.0106772,0.0268701 0.0106772,0.0403937l0 0.0262165 0 0.0262205c0,0.0135236 0,0.0244055 -0.0106772,0.0403937l-0.0172441 0.0202756 0 -0.0868898 0 -0.0868898 0.0172441 0.0202795z"/>
   <path id="_92558720" class="fil6" d="M9.72027 3.4317l0.0373701 0c0.0320354,0 0.0580039,-0.0259646 0.0580039,-0.0579843l7.87402e-006 -0.141732c0,-0.0320079 -0.0259803,-0.0579764 -0.0580118,-0.0579764l-0.0373701 0c-0.0320315,0 -0.0580079,0.0259685 -0.0580079,0.0579764l3.93701e-006 0.141732c0,0.0320197 0.0259724,0.0579843 0.0580039,0.0579843z"/>
   <path id="_265543920" class="fil5" d="M8.97907 3.23624c-0.0105945,0.0159843 -0.0105984,0.0268701 -0.0105984,0.0403937l3.93701e-006 0.0262165 0 0.0262205c0,0.0135236 -3.93701e-006,0.0244055 0.0105906,0.0403937l0.017311 0.0202756 0 -0.0868898 0 -0.0868898 -0.0173071 0.0202795z"/>
   <path id="_265543752" class="fil6" d="M9.09168 3.4317l-0.0373622 0c-0.0320236,0 -0.0579803,-0.0259646 -0.0579803,-0.0579843l7.87402e-006 -0.141732c0,-0.0320079 0.0259449,-0.0579764 0.0579685,-0.0579764l0.0373661 0c0.0320197,0 0.0579685,0.0259685 0.0579685,0.0579764l3.93701e-006 0.141732c0,0.0320197 -0.0259567,0.0579843 -0.0579724,0.0579843z"/>
   <path id="_265543656" class="fil31" d="M8.31065 2.99569c-0.088063,-0.0212087 -0.171272,-0.00838976 -0.247295,0.0380984 -0.0760197,0.0465 -0.125335,0.114732 -0.146547,0.202799 -0.0212362,0.0881614 -0.00840551,0.171362 0.0380984,0.247295 0.0465,0.0760118 0.114732,0.125315 0.202803,0.146535 0.0349134,0.00840551 0.0690709,0.0114685 0.102346,0.00918898 0.0505512,-0.0034685 0.0990315,-0.019248 0.144945,-0.0472913 0.0760157,-0.0465079 0.125327,-0.114728 0.146535,-0.202795 0.0212087,-0.0879764 0.00838583,-0.171165 -0.038122,-0.247315 -0.0465748,-0.0760236 -0.114799,-0.125315 -0.202764,-0.146516z"/>
   <path id="_265544256" class="fil32" d="M8.23996 3.64034l-0.000338583 0m-0.00100394 0l-0.00124409 0c-0.026063,-0.000102362 -0.0526339,-0.00340945 -0.0796693,-0.00991732l-0.000791339 -0.000185039 0.000791339 0.000185039c0.0274606,0.00661417 0.0544528,0.00991732 0.0809134,0.00991732zm0.00134252 0c0.00673622,-3.54331e-005 0.0134291,-0.000279528 0.0200906,-0.000728346 0.0505512,-0.0034685 0.0990315,-0.019248 0.144945,-0.0472913 0.0336457,-0.0205827 0.062063,-0.0454252 0.0851299,-0.0743583l3.93701e-006 -3.93701e-006c-0.0230669,0.0289331 -0.0514882,0.0537795 -0.0851339,0.0743622 -0.0459094,0.0280394 -0.0943937,0.0438228 -0.144945,0.0472913 -0.00666142,0.000452756 -0.0133583,0.00069685 -0.0200906,0.000728346z"/>
   <path id="_265544088" class="fil33" d="M8.23862 3.64034c-0.0264606,0 -0.0534528,-0.00330315 -0.0809134,-0.00991732 -0.000267717,-6.29921e-005 -0.000523622,-0.000122047 -0.000795276,-0.000185039 -0.0235591,-0.00574016 -0.0456535,-0.013563 -0.0663425,-0.0232953 0.0062874,-5.11811e-005 0.0125472,-0.00023622 0.0187598,-0.00065748 0.0505551,-0.0034685 0.0990394,-0.0192598 0.144945,-0.0472874 0.0760276,-0.0465079 0.125323,-0.114732 0.146547,-0.202799 0.021189,-0.0879764 0.00837402,-0.171165 -0.038122,-0.247315 -0.0339606,-0.0554173 -0.0794764,-0.0965669 -0.135717,-0.123043 0.000937008,-1.1811e-005 0.0018622,-1.1811e-005 0.00279528,-1.1811e-005 0.0264409,0 0.0534055,0.00325591 0.0808701,0.00987008 0.0879646,0.0211969 0.156185,0.0704882 0.202764,0.146512 0.0319803,0.0523504 0.0480197,0.108035 0.0480394,0.166311 1.5748e-005,0.0264882 -0.00328346,0.0535118 -0.00991732,0.0810039 -0.011815,0.0490827 -0.0323701,0.092 -0.0614055,0.128437 -0.023063,0.0289291 -0.0514843,0.0537756 -0.0851299,0.0743583 -0.0459094,0.0280394 -0.0943937,0.0438228 -0.144945,0.0472913 -0.0071063,0.000480315 -0.014252,0.000728346 -0.0214331,0.000728346z"/>
   <path id="_265543848" class="fil31" d="M9.97704 0.747291c-0.15061,-0.225717 -0.388295,-0.379039 -0.706469,-0.455705 -0.318102,-0.0766378 -0.601024,-0.0488386 -0.840933,0.0826102 -0.208535,0.114287 -0.354819,0.293941 -0.434756,0.533969 -0.0134764,0.0404528 -0.00934252,0.0850433 0.0113465,0.122339 0.020689,0.0372913 0.056311,0.0644055 0.097748,0.0743819l0.189453 0.0456457c0.0756063,0.018189 0.152705,-0.0232835 0.179295,-0.0965551 0.0471496,-0.129937 0.120398,-0.220917 0.223945,-0.278146 0.12535,-0.0692638 0.281433,-0.0820866 0.463925,-0.038126 0.181906,0.0438386 0.313433,0.128157 0.390874,0.250626 0.077126,0.122079 0.0943701,0.274429 0.0514134,0.452791 -0.0592362,0.245854 -0.169563,0.39452 -0.327921,0.441846 -0.166736,0.0498228 -0.406701,0.0359764 -0.713654,-0.0412205l-0.0819803 -0.0197638c-0.0818543,-0.0197165 -0.164453,0.0308307 -0.184165,0.112657l-0.172028 0.714004c-0.00955512,0.0396417 -0.00310236,0.0806299 0.0181811,0.115413 0.0212874,0.0347913 0.0548268,0.0592087 0.0944764,0.068752l0.192161 0.0463031c0.0154921,0.00374016 0.0309961,0.00494882 0.0461063,0.00391339 0.0647323,-0.00444882 0.122071,-0.0502165 0.138067,-0.116559l0.111409 -0.462402c0.00137402,-0.00572835 0.00715748,-0.00938189 0.0128583,-0.0081811 0.360406,0.076689 0.654654,0.0634685 0.874642,-0.0393425 0.233874,-0.109343 0.393213,-0.33376 0.473496,-0.667035 0.0799843,-0.331965 0.0438425,-0.615327 -0.107492,-0.842217z"/>
   <path id="_265543992" class="fil32" d="M9.60681 2.25848c0.00135433,-0.000645669 0.0027874,-0.00128346 0.00422835,-0.00194094 0.233874,-0.109343 0.393213,-0.33376 0.473496,-0.667035 0.027622,-0.114764 0.041378,-0.223713 0.041378,-0.326531 0,0.102819 -0.0137598,0.211768 -0.041378,0.326531 -0.0802835,0.333276 -0.239626,0.557693 -0.473496,0.667035 -0.00143701,0.000653543 -0.00287795,0.00130315 -0.00422835,0.00194094z"/>
   <path id="_265543728" class="fil33" d="M9.16109 2.34494c-0.0141732,0 -0.0285276,-0.000192913 -0.043,-0.000590551 0.0813346,-0.0146654 0.155917,-0.037752 0.223484,-0.0693307 0.233909,-0.109335 0.393276,-0.333764 0.473559,-0.667039 0.0799843,-0.331965 0.0438425,-0.615323 -0.107492,-0.842209 -0.150602,-0.225724 -0.388303,-0.379043 -0.7065,-0.455705 -0.0963425,-0.0232165 -0.189441,-0.0367835 -0.279122,-0.0408543 0.0684213,-0.0132047 0.139339,-0.0198071 0.212705,-0.0198071 0.106945,-3.93701e-006 0.219028,0.0140433 0.335846,0.042185 0.318177,0.0766614 0.555854,0.229988 0.706469,0.455705 0.0989724,0.148453 0.148661,0.321087 0.14887,0.515685 0,0.102819 -0.0137598,0.211768 -0.041378,0.326531 -0.0802835,0.333276 -0.239626,0.557693 -0.473496,0.667035 -0.00143701,0.000653543 -0.00287795,0.00129528 -0.00423228,0.00194094 -0.125213,0.0576339 -0.274272,0.0864528 -0.445713,0.0864528z"/>
   <path id="_265543800" class="fil34" d="M9.4997 6.2278l-1.26543 -0.041063c-0.00990945,-0.000330709 -0.0176732,-0.0086063 -0.0173465,-0.0185157l0.069815 -2.15152c0.000334646,-0.00988583 0.00861417,-0.0176575 0.0185118,-0.0173386l1.26544 0.0410669c0.0098937,0.000314961 0.0176535,0.00861417 0.0173268,0.0185118l-0.069811 2.1515c-0.000330709,0.00990945 -0.0086063,0.0176693 -0.0185118,0.0173504z"/>
   <polygon id="_265545000" class="fil35" points="9.4309,5.92398 8.32264,5.888 8.38017,4.11575 9.4884,4.15171 "/>
   <path id="_265544424" class="fil17" d="M9.00416 6.12326l-0.26861 -0.00872835c-0.00625591,-0.000192913 -0.0111654,-0.00542913 -0.0109606,-0.0116811l0.00227953 -0.0700157c0.00019685,-0.00625591 0.00543307,-0.0111535 0.011685,-0.0109567l0.268618 0.00871654c0.00626378,0.000192913 0.0111575,0.00544094 0.0109646,0.0116929l-0.00227953 0.0700197c-0.000204724,0.00625197 -0.00543307,0.0111614 -0.0116969,0.0109528z"/>
   <polygon id="_265544856" class="fil13" points="9.77448,5.00827 9.68434,5.21085 9.49036,5.25484 9.47792,5.12682 9.59639,5.02222 9.62911,4.91664 "/>
   <polygon id="_265544976" class="fil30" points="9.68557,3.76907 9.95548,4.35563 9.62911,4.91664 9.76288,5.04069 10.2221,4.46442 10.2913,4.26641 9.92858,3.72569 "/>
   <polygon id="_265544712" class="fil1" points="2.58983,3.25752 2.57074,3.17409 2.59127,3.15412 2.63233,3.19012 2.68539,3.0832 2.77265,3.03111 2.81797,3.08031 2.74321,3.19467 2.69435,3.2668 2.65286,3.41837 2.581,3.39633 "/>
   <path id="_265544784" class="fil4" d="M2.48117 3.70393c0.028122,-0.137051 0.049626,-0.275465 0.0644252,-0.414587 0.0580354,-0.00468504 0.11713,0.00443307 0.171051,0.0264055 0.0144882,0.245661 0.00314961,0.492831 -0.0337677,0.736134 -0.00157874,0.0104567 -0.00379921,0.0219488 -0.0121575,0.0284449 -0.00697638,0.00544094 -0.0165157,0.00594488 -0.0253661,0.00593307 -0.0859921,-7.87402e-006 -0.169874,-0.0252126 -0.251185,-0.0531811 -0.124043,-0.0426575 -0.245673,-0.0922953 -0.364142,-0.148606 0.0131535,-0.0749331 0.016,-0.15165 0.00842126,-0.227339 -0.0104921,-0.104657 0.0135945,-0.247732 0.14237,-0.167118 0.034874,0.0218268 0.306283,0.184972 0.30035,0.213913z"/>
  </g>
 </g>
</svg>
